<svg width="33" height="33" viewBox="0 0 33 33" fill="none" xmlns="http://www.w3.org/2000/svg">
<rect x="0.5" y="0.5" width="32" height="32" rx="16" fill="white"/>
<path d="M17.61 13.1103L18.4053 12.3149C18.5051 12.2151 18.6236 12.1359 18.754 12.0819C18.8845 12.0278 19.0242 12 19.1654 12C19.3066 12 19.4464 12.0278 19.5768 12.0819C19.7072 12.1359 19.8257 12.2151 19.9255 12.3149L20.6853 13.0748C20.8868 13.2763 21 13.5497 21 13.8347C21 14.1196 20.8868 14.393 20.6853 14.5945L19.89 15.3898M17.61 13.1103L12.4428 18.2772C12.2643 18.4556 12.1544 18.6911 12.1322 18.9424L12.0021 20.4149C11.9951 20.4931 12.0054 20.572 12.0322 20.6459C12.059 20.7197 12.1017 20.7868 12.1572 20.8424C12.2128 20.898 12.2798 20.9408 12.3537 20.9676C12.4275 20.9945 12.5063 21.0048 12.5846 20.9979L14.057 20.8679C14.3087 20.8459 14.5446 20.7359 14.7233 20.5573L19.89 15.3898M17.61 13.1103L19.89 15.3898" stroke="black" stroke-linecap="round" stroke-linejoin="round"/>
<rect x="0.5" y="0.5" width="32" height="32" rx="16" stroke="#EAECEE"/>
</svg>
