<svg width="32" height="32" viewBox="0 0 32 32" fill="none" xmlns="http://www.w3.org/2000/svg">
<rect x="0.5" y="0.5" width="31" height="31" rx="15.5" fill="white"/>
<path d="M16.05 19.4741L16 19.5286L15.945 19.4741C13.57 17.1253 12 15.5722 12 13.9973C12 12.9074 12.75 12.0899 13.75 12.0899C14.52 12.0899 15.27 12.6349 15.535 13.376H16.465C16.73 12.6349 17.48 12.0899 18.25 12.0899C19.25 12.0899 20 12.9074 20 13.9973C20 15.5722 18.43 17.1253 16.05 19.4741ZM18.25 11C17.38 11 16.545 11.4414 16 12.1335C15.455 11.4414 14.62 11 13.75 11C12.21 11 11 12.3134 11 13.9973C11 16.0518 12.7 17.7357 15.275 20.2807L16 21L16.725 20.2807C19.3 17.7357 21 16.0518 21 13.9973C21 12.3134 19.79 11 18.25 11Z" fill="black"/>
<rect x="0.5" y="0.5" width="31" height="31" rx="15.5" stroke="#EAECEE"/>
</svg>
