<svg width="16" height="16" viewBox="0 0 16 16" fill="none" xmlns="http://www.w3.org/2000/svg">
<path d="M11.2812 2.375H4.71875C4.47011 2.375 4.23165 2.47377 4.05584 2.64959C3.88002 2.8254 3.78125 3.06386 3.78125 3.3125V13.625C3.78129 13.7087 3.80372 13.7908 3.84621 13.8628C3.88869 13.9349 3.94969 13.9943 4.02287 14.0348C4.09604 14.0753 4.17874 14.0956 4.26236 14.0934C4.34599 14.0911 4.4275 14.0666 4.49844 14.0223L8 11.8338L11.5021 14.0223C11.5731 14.0665 11.6545 14.0909 11.7381 14.093C11.8216 14.0951 11.9042 14.0749 11.9773 14.0344C12.0504 13.9939 12.1113 13.9345 12.1537 13.8626C12.1962 13.7906 12.2186 13.7086 12.2188 13.625V3.3125C12.2188 3.06386 12.12 2.8254 11.9442 2.64959C11.7683 2.47377 11.5299 2.375 11.2812 2.375ZM11.2812 12.7795L8.24785 10.884C8.17335 10.8374 8.08727 10.8127 7.99941 10.8127C7.91156 10.8127 7.82548 10.8374 7.75098 10.884L4.71875 12.7795V3.3125H11.2812V12.7795Z" fill="black"/>
</svg>
