<svg width="33" height="33" viewBox="0 0 33 33" fill="none" xmlns="http://www.w3.org/2000/svg">
<rect x="0.5" y="0.5" width="32" height="32" rx="16" fill="white"/>
<path d="M21.1809 12.6505H11.8191C11.7143 12.6505 11.6139 12.6927 11.5401 12.7676C11.4663 12.8424 11.425 12.9437 11.425 13.049C11.425 13.1544 11.4663 13.2556 11.5401 13.3305C11.6139 13.4053 11.7143 13.4475 11.8191 13.4475H12.2761V21.2451C12.2761 21.4649 12.3622 21.6759 12.5158 21.8316C12.6694 21.9873 12.878 22.075 13.0957 22.075H19.9043C20.122 22.075 20.3306 21.9873 20.4842 21.8316C20.6378 21.6759 20.7239 21.4649 20.7239 21.2451V13.4475H21.1809C21.2857 13.4475 21.3861 13.4053 21.4599 13.3305C21.5337 13.2556 21.575 13.1544 21.575 13.049C21.575 12.9437 21.5337 12.8424 21.4599 12.7676C21.3861 12.6927 21.2857 12.6505 21.1809 12.6505ZM19.9356 21.2451C19.9356 21.2541 19.9321 21.2626 19.9261 21.2687C19.9201 21.2747 19.9122 21.2779 19.9043 21.2779H13.0957C13.0878 21.2779 13.0799 21.2747 13.0739 21.2687C13.0679 21.2626 13.0644 21.2541 13.0644 21.2451V13.4475H19.9356V21.2451ZM14.0933 11.0421C14.0195 11.1169 13.9782 11.2182 13.9782 11.3235C13.9782 11.4289 14.0195 11.5302 14.0933 11.605C14.1671 11.6798 14.2675 11.7221 14.3723 11.7221H18.6277C18.7325 11.7221 18.8329 11.6798 18.9067 11.605C18.9805 11.5302 19.0218 11.4289 19.0218 11.3235C19.0218 11.2182 18.9805 11.1169 18.9067 11.0421C18.8329 10.9672 18.7325 10.925 18.6277 10.925H14.3723C14.2675 10.925 14.1671 10.9672 14.0933 11.0421Z" fill="black" stroke="black" stroke-width="0.15"/>
<rect x="0.5" y="0.5" width="32" height="32" rx="16" stroke="#EAECEE"/>
</svg>
