
         <svg width="30" height="30" viewBox="0 0 33 33" fill="none" xmlns="http://www.w3.org/2000/svg">
                <rect x="0.5" y="0.5" width="32" height="32" rx="16" fill="white"/>
                <path d="M16.7663 9.32348C14.266 9.28297 12.2027 11.0893 12.1661 13.3509C12.1639 13.4869 12.2215 13.6182 12.3262 13.7161C12.431 13.8139 12.5742 13.8703 12.7245 13.8727C12.8748 13.8751 13.0199 13.8235 13.1277 13.729C13.2355 13.6346 13.2974 13.5052 13.2996 13.3693C13.327 11.6736 14.875 10.3183 16.7497 10.3487C18.6245 10.3791 20.1277 11.7837 20.1003 13.4794C20.0795 14.7599 19.285 15.3767 18.2716 16.1366L18.2348 16.1637C17.249 16.9035 16.0623 17.7928 16.0335 19.5665L16.0252 20.0791C16.023 20.215 16.0806 20.3464 16.1854 20.4442C16.2901 20.5421 16.4334 20.5984 16.5837 20.6009C16.734 20.6033 16.879 20.5516 16.9868 20.4572C17.0947 20.3628 17.1565 20.2334 17.1587 20.0974L17.167 19.5848C17.1877 18.3043 17.9823 17.6876 18.9957 16.9277L19.0324 16.9006C20.0183 16.1597 21.205 15.2724 21.2337 13.4978C21.2704 11.2362 19.2667 9.36398 16.7663 9.32348ZM16.5338 23.6765C16.7593 23.6802 16.9768 23.6027 17.1386 23.461C17.3003 23.3194 17.3931 23.1253 17.3964 22.9214C17.3997 22.7174 17.3133 22.5204 17.1562 22.3736C16.9991 22.2269 16.7842 22.1423 16.5587 22.1387C16.3333 22.135 16.1158 22.2125 15.954 22.3542C15.7922 22.4958 15.6995 22.6899 15.6962 22.8938C15.6929 23.0978 15.7793 23.2948 15.9364 23.4416C16.0935 23.5883 16.3084 23.6729 16.5338 23.6765Z" fill="black"/>
                <rect x="0.5" y="0.5" width="32" height="32" rx="16" stroke="#EAECEE"/>
        </svg>
