<svg width="36" height="35" viewBox="0 0 36 35" fill="none" xmlns="http://www.w3.org/2000/svg">
<rect width="36" height="35" rx="6" fill="#60C28D"/>
<path d="M11.8421 11.7778H14.6842V9.88889L16.5789 8H19.4211L21.3158 9.88889V11.7778H24.1579C24.9117 11.7778 25.6346 12.0763 26.1676 12.6076C26.7006 13.139 27 13.8597 27 14.6111V22.1667C27 22.9181 26.7006 23.6388 26.1676 24.1701C25.6346 24.7015 24.9117 25 24.1579 25H11.8421C11.0883 25 10.3654 24.7015 9.83243 24.1701C9.29944 23.6388 9 22.9181 9 22.1667V14.6111C9 13.8597 9.29944 13.139 9.83243 12.6076C10.3654 12.0763 11.0883 11.7778 11.8421 11.7778ZM16.9674 8.94444L15.6316 10.2761V11.7778H20.3684V10.2761L19.0326 8.94444H16.9674ZM11.8421 12.7222C11.3396 12.7222 10.8577 12.9212 10.5023 13.2755C10.147 13.6297 9.94737 14.1101 9.94737 14.6111V22.1667C9.94737 22.6676 10.147 23.1481 10.5023 23.5023C10.8577 23.8565 11.3396 24.0556 11.8421 24.0556H24.1579C24.6604 24.0556 25.1423 23.8565 25.4977 23.5023C25.853 23.1481 26.0526 22.6676 26.0526 22.1667V14.6111C26.0526 14.1101 25.853 13.6297 25.4977 13.2755C25.1423 12.9212 24.6604 12.7222 24.1579 12.7222H11.8421Z" fill="white"/>
</svg>
