<svg width="36" height="35" viewBox="0 0 36 35" fill="none" xmlns="http://www.w3.org/2000/svg">
<rect width="36" height="35" rx="6" fill="#4FC4DE"/>
<path d="M12.5263 10H23.4737C24.1437 10 24.7863 10.2329 25.2601 10.6474C25.7338 11.062 26 11.6243 26 12.2105V21.7895C26 22.3757 25.7338 22.938 25.2601 23.3526C24.7863 23.7671 24.1437 24 23.4737 24H12.5263C11.8563 24 11.2137 23.7671 10.7399 23.3526C10.2662 22.938 10 22.3757 10 21.7895V12.2105C10 11.6243 10.2662 11.062 10.7399 10.6474C11.2137 10.2329 11.8563 10 12.5263 10ZM12.5263 10.7368C12.0796 10.7368 11.6512 10.8921 11.3354 11.1685C11.0195 11.4448 10.8421 11.8197 10.8421 12.2105V20.7505L14.4547 17.5821L16.56 19.4242L20.7705 15.74L25.1579 19.5789V12.2105C25.1579 11.8197 24.9805 11.4448 24.6646 11.1685C24.3488 10.8921 23.9204 10.7368 23.4737 10.7368H12.5263ZM16.56 20.4705L14.4547 18.6284L10.8421 21.7895C10.8421 22.1803 11.0195 22.5552 11.3354 22.8315C11.6512 23.1079 12.0796 23.2632 12.5263 23.2632H23.4737C23.9204 23.2632 24.3488 23.1079 24.6646 22.8315C24.9805 22.5552 25.1579 22.1803 25.1579 21.7895V20.6179L20.7705 16.7863L16.56 20.4705ZM14.6316 12.2105C15.1899 12.2105 15.7254 12.4046 16.1202 12.7501C16.515 13.0955 16.7368 13.5641 16.7368 14.0526C16.7368 14.5412 16.515 15.0097 16.1202 15.3552C15.7254 15.7007 15.1899 15.8947 14.6316 15.8947C14.0732 15.8947 13.5377 15.7007 13.1429 15.3552C12.7481 15.0097 12.5263 14.5412 12.5263 14.0526C12.5263 13.5641 12.7481 13.0955 13.1429 12.7501C13.5377 12.4046 14.0732 12.2105 14.6316 12.2105ZM14.6316 12.9474C14.2966 12.9474 13.9753 13.0638 13.7384 13.2711C13.5015 13.4784 13.3684 13.7595 13.3684 14.0526C13.3684 14.3458 13.5015 14.6269 13.7384 14.8342C13.9753 15.0414 14.2966 15.1579 14.6316 15.1579C14.9666 15.1579 15.2879 15.0414 15.5248 14.8342C15.7617 14.6269 15.8947 14.3458 15.8947 14.0526C15.8947 13.7595 15.7617 13.4784 15.5248 13.2711C15.2879 13.0638 14.9666 12.9474 14.6316 12.9474Z" fill="white"/>
</svg>
