<svg width="36" height="35" viewBox="0 0 36 35" fill="none" xmlns="http://www.w3.org/2000/svg">
<rect width="36" height="35" rx="6" fill="#101010"/>
<path d="M24.9519 19.5263L23.388 18.4316C23.6458 17.5221 23.6629 16.5368 23.388 15.5516L24.9519 14.4737L23.7059 12.3684L21.9615 13.1432C21.2826 12.4695 20.4233 11.9474 19.4179 11.7032L19.246 9.84211H16.754L16.5821 11.7032C15.5767 11.9474 14.7174 12.4695 14.0385 13.1432L12.2941 12.3684L11.0481 14.4737L12.612 15.5516C12.3371 16.5368 12.3542 17.5221 12.612 18.4316L11.0481 19.5263L12.2941 21.6316L14.0385 20.8484C14.7174 21.5137 15.5767 22.0189 16.5821 22.28L16.754 24.1579H19.246L19.4179 22.28C20.4233 22.0189 21.2826 21.5137 21.9615 20.8484L23.7059 21.6316L24.9519 19.5263ZM19.7186 9C19.9507 9 20.1483 9.16842 20.1483 9.38737L20.303 11.1053C20.9561 11.3411 21.5404 11.6863 22.0646 12.0989L23.6543 11.3663C23.852 11.2653 24.1012 11.3326 24.2215 11.5263L25.9401 14.4737C26.0605 14.6505 25.9917 14.8947 25.8027 15.0211L24.3676 16.0063C24.4793 16.68 24.4707 17.3453 24.3676 17.9937L25.8027 18.9789C25.9917 19.1053 26.0605 19.3495 25.9401 19.5263L24.2215 22.4737C24.1012 22.6505 23.852 22.7179 23.6543 22.6168L22.0646 21.8926C21.5404 22.3053 20.9561 22.6421 20.303 22.8947L20.1483 24.5789C20.1483 24.8232 19.9507 25 19.7186 25H16.2814C16.1674 25 16.0581 24.9556 15.9775 24.8767C15.897 24.7977 15.8517 24.6906 15.8517 24.5789L15.697 22.8947C15.0439 22.6421 14.4596 22.3053 13.9354 21.8926L12.3457 22.6168C12.148 22.7179 11.8988 22.6505 11.7785 22.4737L10.0599 19.5263C9.93955 19.3495 10.0083 19.1053 10.1973 18.9789L11.6324 17.9937C11.5293 17.3453 11.5207 16.68 11.6324 16.0063L10.1973 15.0211C10.0083 14.8947 9.93955 14.6505 10.0599 14.4737L11.7785 11.5263C11.8988 11.3326 12.148 11.2653 12.3457 11.3663L13.9354 12.0989C14.4596 11.6863 15.0439 11.3411 15.697 11.1053L15.8517 9.38737C15.8517 9.16842 16.0493 9 16.2814 9H19.7186ZM18 14.0526C18.7977 14.0526 19.5627 14.3632 20.1267 14.9159C20.6908 15.4686 21.0076 16.2183 21.0076 17C21.0076 17.7817 20.6908 18.5314 20.1267 19.0841C19.5627 19.6368 18.7977 19.9474 18 19.9474C17.2023 19.9474 16.4373 19.6368 15.8733 19.0841C15.3092 18.5314 14.9924 17.7817 14.9924 17C14.9924 16.2183 15.3092 15.4686 15.8733 14.9159C16.4373 14.3632 17.2023 14.0526 18 14.0526ZM18 14.8947C17.4302 14.8947 16.8838 15.1165 16.4809 15.5114C16.078 15.9062 15.8517 16.4416 15.8517 17C15.8517 17.5584 16.078 18.0938 16.4809 18.4886C16.8838 18.8835 17.4302 19.1053 18 19.1053C18.5698 19.1053 19.1162 18.8835 19.5191 18.4886C19.922 18.0938 20.1483 17.5584 20.1483 17C20.1483 16.4416 19.922 15.9062 19.5191 15.5114C19.1162 15.1165 18.5698 14.8947 18 14.8947Z" fill="white"/>
</svg>
