<svg width="36" height="35" viewBox="0 0 36 35" fill="none" xmlns="http://www.w3.org/2000/svg">
<rect width="36" height="35" rx="6" fill="#484D56"/>
<path d="M12.5 11.5V11C12.3674 11 12.2402 11.0527 12.1464 11.1464C12.0527 11.2402 12 11.3674 12 11.5H12.5ZM12.5 24.5H12C12 24.6326 12.0527 24.7598 12.1464 24.8536C12.2402 24.9473 12.3674 25 12.5 25V24.5ZM15 11V26H16V11H15ZM12.5 12H22.5V11H12.5V12ZM24 13.5V22.5H25V13.5H24ZM22.5 24H12.5V25H22.5V24ZM13 24.5V11.5H12V24.5H13ZM24 22.5C24 22.8978 23.842 23.2794 23.5607 23.5607C23.2794 23.842 22.8978 24 22.5 24V25C23.163 25 23.7989 24.7366 24.2678 24.2678C24.7366 23.7989 25 23.163 25 22.5H24ZM22.5 12C22.8978 12 23.2794 12.158 23.5607 12.4393C23.842 12.7206 24 13.1022 24 13.5H25C25 12.837 24.7366 12.2011 24.2678 11.7322C23.7989 11.2634 23.163 11 22.5 11V12ZM18 16H22V15H18V16Z" fill="white"/>
</svg>
