<svg width="36" height="35" viewBox="0 0 36 35" fill="none" xmlns="http://www.w3.org/2000/svg">
<rect width="36" height="35" rx="6" fill="#778DFF" fill-opacity="0.9"/>
<path d="M13.7647 8H14.7059C14.9555 8 15.1949 8.09981 15.3714 8.27748C15.5479 8.45514 15.6471 8.69611 15.6471 8.94737V9.89474H20.3529V8.94737C20.3529 8.69611 20.4521 8.45514 20.6286 8.27748C20.8051 8.09981 21.0445 8 21.2941 8H22.2353C22.4849 8 22.7243 8.09981 22.9008 8.27748C23.0773 8.45514 23.1765 8.69611 23.1765 8.94737V9.89474C23.9253 9.89474 24.6435 10.1942 25.173 10.7272C25.7025 11.2602 26 11.9831 26 12.7368V23.1579C26 23.9117 25.7025 24.6346 25.173 25.1676C24.6435 25.7006 23.9253 26 23.1765 26H12.8235C12.0747 26 11.3565 25.7006 10.827 25.1676C10.2975 24.6346 10 23.9117 10 23.1579V12.7368C10 11.9831 10.2975 11.2602 10.827 10.7272C11.3565 10.1942 12.0747 9.89474 12.8235 9.89474V8.94737C12.8235 8.69611 12.9227 8.45514 13.0992 8.27748C13.2757 8.09981 13.5151 8 13.7647 8ZM21.2941 9.89474H22.2353V8.94737H21.2941V9.89474ZM14.7059 9.89474V8.94737H13.7647V9.89474H14.7059ZM12.8235 10.8421C12.3243 10.8421 11.8455 11.0417 11.4925 11.3971C11.1395 11.7524 10.9412 12.2343 10.9412 12.7368V13.6842H25.0588V12.7368C25.0588 12.2343 24.8605 11.7524 24.5075 11.3971C24.1545 11.0417 23.6757 10.8421 23.1765 10.8421H12.8235ZM10.9412 23.1579C10.9412 23.6604 11.1395 24.1423 11.4925 24.4977C11.8455 24.853 12.3243 25.0526 12.8235 25.0526H23.1765C23.6757 25.0526 24.1545 24.853 24.5075 24.4977C24.8605 24.1423 25.0588 23.6604 25.0588 23.1579V14.6316H10.9412V23.1579ZM18.4706 18.4211H23.1765V23.1579H18.4706V18.4211ZM19.4118 19.3684V22.2105H22.2353V19.3684H19.4118Z" fill="white"/>
</svg>
