<svg width="25" height="25" viewBox="0 0 25 25" fill="none" xmlns="http://www.w3.org/2000/svg">
<circle cx="12.5" cy="12.5" r="12.5" fill="#D3D3D3"/>
<path fill-rule="evenodd" clip-rule="evenodd" d="M10.5852 14.7321C12.0113 14.5238 12.9931 14.5417 14.421 14.7394C14.5245 14.7544 14.6189 14.8063 14.6871 14.8856C14.7552 14.9648 14.7923 15.066 14.7917 15.1705C14.7917 15.2705 14.7573 15.3676 14.6952 15.4434C14.587 15.5756 14.4762 15.7056 14.3627 15.8334H14.9129C14.9475 15.7921 14.9823 15.7501 15.0175 15.7074C15.1411 15.5558 15.2085 15.3662 15.2083 15.1707C15.2083 14.7488 14.9004 14.3853 14.4781 14.3269C13.0165 14.1247 11.9948 14.1053 10.525 14.3201C10.0984 14.3824 9.79169 14.7515 9.79169 15.1763C9.79169 15.3649 9.85315 15.5513 9.9696 15.7024C10.004 15.7469 10.0379 15.7907 10.0717 15.8336H10.6086C10.503 15.7073 10.4001 15.5788 10.2998 15.4482C10.2402 15.37 10.2081 15.2744 10.2084 15.1761C10.2084 14.9517 10.3696 14.7636 10.5852 14.7321ZM12.5 12.7084C12.6642 12.7084 12.8267 12.6761 12.9784 12.6133C13.13 12.5504 13.2678 12.4584 13.3839 12.3423C13.5 12.2262 13.592 12.0884 13.6549 11.9368C13.7177 11.7851 13.75 11.6226 13.75 11.4584C13.75 11.2943 13.7177 11.1317 13.6549 10.9801C13.592 10.8284 13.5 10.6906 13.3839 10.5745C13.2678 10.4585 13.13 10.3664 12.9784 10.3036C12.8267 10.2407 12.6642 10.2084 12.5 10.2084C12.1685 10.2084 11.8506 10.3401 11.6161 10.5745C11.3817 10.8089 11.25 11.1269 11.25 11.4584C11.25 11.7899 11.3817 12.1079 11.6161 12.3423C11.8506 12.5767 12.1685 12.7084 12.5 12.7084ZM12.5 13.1251C12.942 13.1251 13.366 12.9495 13.6785 12.6369C13.9911 12.3244 14.1667 11.9004 14.1667 11.4584C14.1667 11.0164 13.9911 10.5925 13.6785 10.2799C13.366 9.96734 12.942 9.79175 12.5 9.79175C12.058 9.79175 11.6341 9.96734 11.3215 10.2799C11.0089 10.5925 10.8334 11.0164 10.8334 11.4584C10.8334 11.9004 11.0089 12.3244 11.3215 12.6369C11.6341 12.9495 12.058 13.1251 12.5 13.1251Z" fill="white"/>
<path fill-rule="evenodd" clip-rule="evenodd" d="M12.5 16.2499C14.571 16.2499 16.25 14.5709 16.25 12.4999C16.25 10.4289 14.571 8.74992 12.5 8.74992C10.4289 8.74992 8.74998 10.4289 8.74998 12.4999C8.74998 14.5709 10.4289 16.2499 12.5 16.2499ZM12.5 16.6666C14.8012 16.6666 16.6666 14.8011 16.6666 12.4999C16.6666 10.1987 14.8012 8.33325 12.5 8.33325C10.1987 8.33325 8.33331 10.1987 8.33331 12.4999C8.33331 14.8011 10.1987 16.6666 12.5 16.6666Z" fill="white"/>
</svg>
